<?xml version="1.0" encoding="UTF-8"?>
<svg id="Layer_1" xmlns="http://www.w3.org/2000/svg" viewBox="0 0 2098.24 431.7">
  <defs>
    <style>
      .cls-1 {
        fill: #fff;
      }

      .cls-2 {
        fill: #006fb9;
      }

      .cls-3 {
        fill: none;
      }

      .cls-4 {
        fill: #006eb7;
      }

      .cls-5 {
        fill: #4495d1;
      }

      .cls-6 {
        fill: #243a76;
      }
    </style>
  </defs>
  <g>
    <path class="cls-3" d="M547.91,338.71c-.54.55-1.09,1.09-1.63,1.64.55-.55,1.09-1.09,1.63-1.64Z"/>
    <path class="cls-3" d="M532.51,353.75c-.08.07-.15.15-.23.22.08-.07.15-.15.23-.22Z"/>
    <path class="cls-3" d="M534.46,351.88c-.05.05-.1.1-.15.15.05-.05.1-.1.15-.15Z"/>
    <path class="cls-3" d="M551.77,334.78c.54-.55,1.07-1.1,1.61-1.66-.54.56-1.09,1.12-1.63,1.68,0,0,.02-.02.03-.03Z"/>
    <path class="cls-3" d="M551.58,334.98c-.49.5-.98,1-1.47,1.5.49-.5.98-1,1.47-1.5Z"/>
    <path class="cls-3" d="M549.61,337c-.4.4-.79.8-1.19,1.2.4-.4.79-.8,1.19-1.2Z"/>
    <path class="cls-3" d="M522.43,363.24s-.08.08-.13.12c.04-.04.08-.08.13-.12Z"/>
    <path class="cls-3" d="M530.53,355.65c-.09.09-.18.17-.27.26.09-.09.18-.17.27-.26Z"/>
    <path class="cls-3" d="M518.48,366.86s-.08.07-.12.11c.04-.04.08-.07.12-.11Z"/>
    <path class="cls-3" d="M516.53,368.64c-.07.06-.13.12-.2.18.07-.06.13-.12.2-.18Z"/>
    <path class="cls-3" d="M528.52,357.55c-.09.09-.19.18-.28.27.09-.09.19-.18.28-.27Z"/>
    <path class="cls-3" d="M524.47,361.35c-.07.07-.14.13-.22.2.07-.07.14-.13.22-.2Z"/>
    <path class="cls-3" d="M526.5,359.45c-.09.08-.18.17-.26.25.09-.08.18-.17.26-.25Z"/>
    <path class="cls-3" d="M555.02,331.42c-.38.4-.76.79-1.14,1.19.38-.39.76-.79,1.14-1.19Z"/>
    <path class="cls-3" d="M575.34,309.14c-.37.42-.73.84-1.1,1.26.37-.42.73-.84,1.1-1.26Z"/>
    <path class="cls-3" d="M587.85,294.28c-.36.44-.71.87-1.07,1.31.36-.44.71-.87,1.07-1.31Z"/>
    <path class="cls-3" d="M573.8,310.92s.04-.05.07-.08c-.49.56-.98,1.12-1.47,1.68.47-.53.94-1.07,1.41-1.6Z"/>
    <path class="cls-3" d="M576.83,307.42c-.32.37-.63.74-.95,1.1.32-.37.64-.73.95-1.1Z"/>
    <path class="cls-3" d="M571.97,313c-.36.41-.72.82-1.09,1.23.36-.41.72-.82,1.09-1.23Z"/>
    <path class="cls-3" d="M588.9,292.99c.11-.14.23-.28.34-.42-.28.35-.57.7-.86,1.05.17-.21.34-.42.52-.63Z"/>
    <path class="cls-3" d="M586.46,295.97c-.45.55-.9,1.1-1.36,1.65.45-.55.91-1.1,1.36-1.65Z"/>
    <path class="cls-3" d="M581.69,301.71c-.36.43-.72.85-1.08,1.28.36-.43.72-.85,1.08-1.28Z"/>
    <path class="cls-3" d="M583.99,298.96c.21-.25.42-.5.62-.75-.31.37-.62.74-.92,1.11.1-.12.2-.24.3-.36Z"/>
    <path class="cls-3" d="M578.96,304.94c.44-.51.87-1.02,1.3-1.53-.47.55-.94,1.11-1.41,1.66.04-.04.07-.09.11-.13Z"/>
    <path class="cls-3" d="M578.38,305.61c-.33.39-.66.77-1,1.16.33-.39.66-.77,1-1.16Z"/>
    <path class="cls-3" d="M556.69,329.67c-.36.38-.72.76-1.09,1.14.36-.38.73-.76,1.09-1.14Z"/>
    <path class="cls-3" d="M562.01,324.01c-.37.4-.75.8-1.12,1.21.37-.4.75-.8,1.12-1.21Z"/>
    <path class="cls-3" d="M560.42,325.71c-.52.56-1.05,1.12-1.58,1.69.53-.56,1.05-1.12,1.58-1.69Z"/>
    <path class="cls-3" d="M557.49,328.83c.36-.38.71-.75,1.07-1.13-.44.46-.88.93-1.31,1.39.08-.09.17-.17.25-.26Z"/>
    <path class="cls-3" d="M592.29,288.77c-.38.47-.75.94-1.13,1.41.38-.47.75-.94,1.13-1.41Z"/>
    <path class="cls-3" d="M565.36,320.36c-.4.43-.79.87-1.19,1.3.4-.43.79-.87,1.19-1.3Z"/>
    <path class="cls-3" d="M563.07,322.87c.19-.2.37-.41.56-.61-.35.38-.69.75-1.04,1.13.16-.17.32-.35.49-.52Z"/>
    <path class="cls-3" d="M590.64,290.83c-.28.35-.57.7-.85,1.06.28-.35.57-.7.85-1.06Z"/>
    <path class="cls-3" d="M568.5,316.89c.1-.11.19-.21.29-.32-.37.41-.74.82-1.11,1.23.27-.3.55-.61.82-.91Z"/>
    <path class="cls-3" d="M567.25,318.28c-.51.56-1.02,1.12-1.53,1.68.51-.56,1.02-1.12,1.53-1.68Z"/>
    <path class="cls-3" d="M570.33,314.84c-.33.37-.66.75-1,1.12.33-.37.67-.75,1-1.12Z"/>
    <path class="cls-3" d="M536.35,350.06s0,0,0,0c1.65-1.6,3.31-3.2,4.96-4.81-1.65,1.61-3.31,3.21-4.96,4.81,0,0,0,0,0,0Z"/>
    <path class="cls-3" d="M583.13,299.99c-.3.36-.6.72-.9,1.08.3-.36.6-.72.9-1.08Z"/>
    <path class="cls-3" d="M639.77,220.38s0-.02,0-.04c-.06.18-.12.35-.17.53.07-.19.13-.36.17-.49Z"/>
    <path class="cls-3" d="M637.12,225.99s.03-.05.05-.08c-.04.06-.08.12-.11.17.02-.03.04-.06.06-.09Z"/>
    <path class="cls-6" d="M586.78,295.59c-.11.13-.21.26-.32.39.11-.13.21-.26.32-.39Z"/>
    <path class="cls-6" d="M589.79,291.88c-.19.23-.37.46-.56.69.19-.23.37-.46.56-.69Z"/>
    <path class="cls-6" d="M583.69,299.32c-.19.22-.37.45-.56.67.19-.22.37-.45.56-.67Z"/>
    <path class="cls-6" d="M588.38,293.62c-.18.22-.36.44-.53.66.18-.22.36-.44.53-.66Z"/>
    <path class="cls-6" d="M585.1,297.62c-.16.2-.33.39-.49.59.16-.2.33-.39.49-.59Z"/>
    <path class="cls-6" d="M591.16,290.18c-.17.22-.35.43-.52.65.17-.22.35-.43.52-.65Z"/>
    <path class="cls-6" d="M565.72,319.96c-.12.13-.24.27-.36.4.12-.13.24-.27.36-.4Z"/>
    <path class="cls-6" d="M582.23,301.07c-.18.21-.36.43-.54.64.18-.21.36-.43.54-.64Z"/>
    <path class="cls-6" d="M541.31,345.25c1.65-1.61,3.31-3.24,4.95-4.88,0,0,.01-.01.02-.02,0,0-.01.01-.02.02-1.65,1.65-3.3,3.27-4.95,4.88Z"/>
    <path class="cls-6" d="M564.17,321.67c-.18.2-.36.4-.54.59.18-.2.36-.39.54-.59Z"/>
    <path class="cls-6" d="M567.68,317.8c-.14.16-.29.32-.43.48.14-.16.29-.32.43-.48Z"/>
    <path class="cls-6" d="M569.33,315.96c-.18.2-.36.41-.55.61.18-.2.37-.41.55-.61Z"/>
    <path class="cls-6" d="M570.88,314.22c-.18.21-.37.41-.55.62.18-.21.37-.41.55-.62Z"/>
    <path class="cls-6" d="M558.84,327.4c-.09.1-.19.2-.29.3.09-.1.19-.2.29-.3Z"/>
    <path class="cls-6" d="M562.58,323.39c-.19.21-.38.41-.57.62.19-.21.38-.41.57-.62Z"/>
    <path class="cls-6" d="M560.89,325.21c-.16.17-.31.33-.47.5.16-.17.31-.33.47-.5Z"/>
    <path class="cls-6" d="M575.88,308.52c-.18.21-.36.41-.54.62.18-.21.36-.41.54-.62Z"/>
    <path class="cls-6" d="M518.36,366.97c-.61.56-1.22,1.12-1.84,1.67.61-.56,1.22-1.11,1.84-1.67Z"/>
    <path class="cls-6" d="M580.61,302.99c-.12.14-.23.28-.35.42.12-.14.23-.28.35-.42Z"/>
    <path class="cls-6" d="M577.39,306.77c-.18.21-.37.43-.55.64.18-.21.37-.43.55-.64Z"/>
    <path class="cls-6" d="M557.24,329.09c-.18.19-.37.39-.55.58.18-.19.37-.39.55-.58Z"/>
    <path class="cls-6" d="M574.24,310.4c-.13.15-.25.29-.38.44.13-.15.25-.29.38-.44Z"/>
    <path class="cls-6" d="M572.39,312.52c-.14.16-.28.32-.42.48.14-.16.28-.32.42-.48Z"/>
    <path class="cls-6" d="M578.85,305.06c-.16.18-.31.37-.47.55.16-.18.31-.37.47-.55Z"/>
    <path class="cls-6" d="M528.24,357.81c-.58.55-1.16,1.09-1.74,1.63.58-.54,1.16-1.09,1.74-1.63Z"/>
    <path class="cls-6" d="M555.6,330.81c-.19.2-.39.41-.58.61.19-.2.39-.41.58-.61Z"/>
    <path class="cls-6" d="M526.23,359.7c-.59.55-1.18,1.1-1.77,1.65.59-.55,1.18-1.1,1.77-1.65Z"/>
    <path class="cls-6" d="M524.25,361.55c-.61.57-1.21,1.13-1.82,1.69.61-.56,1.21-1.13,1.82-1.69Z"/>
    <path class="cls-6" d="M522.3,363.35c-1.27,1.18-2.55,2.35-3.82,3.51,1.27-1.16,2.55-2.33,3.82-3.51Z"/>
    <path class="cls-6" d="M532.28,353.98c-.58.56-1.17,1.12-1.76,1.67.59-.56,1.17-1.11,1.76-1.67Z"/>
    <path class="cls-6" d="M530.25,355.9c-.58.55-1.16,1.1-1.74,1.64.58-.55,1.16-1.09,1.74-1.64Z"/>
    <path class="cls-6" d="M551.75,334.81c-.05.06-.11.11-.16.17.05-.06.11-.11.16-.17Z"/>
    <path class="cls-6" d="M534.31,352.03c-.6.58-1.2,1.15-1.8,1.73.6-.57,1.2-1.15,1.8-1.73Z"/>
    <path class="cls-6" d="M550.12,336.48c-.17.17-.34.35-.51.52.17-.17.34-.35.51-.52Z"/>
    <path class="cls-6" d="M553.88,332.61c-.17.17-.33.35-.5.52.17-.17.33-.35.5-.52Z"/>
    <path class="cls-6" d="M536.35,350.06c-.63.61-1.26,1.21-1.88,1.82.63-.6,1.26-1.21,1.88-1.82Z"/>
    <path class="cls-6" d="M548.42,338.2c-.17.17-.34.34-.5.51.17-.17.34-.34.5-.51Z"/>
    <path class="cls-3" d="M465.35,263.14c-.73-.71-1.45-1.44-2.16-2.17.71.73,1.43,1.46,2.16,2.17Z"/>
    <g>
      <path class="cls-6" d="M603.52,274.3c-.26.35-.53.7-.79,1.05.05-.07.1-.13.15-.2.22-.28.43-.57.64-.85Z"/>
      <path class="cls-6" d="M593.81,286.87c-.36.45-.71.9-1.07,1.35.31-.39.63-.79.94-1.18.04-.06.09-.11.13-.17Z"/>
      <path class="cls-6" d="M619.95,251.64s-.03.05-.05.07c0,0,0-.01.01-.02.01-.02.02-.03.04-.05Z"/>
      <path class="cls-6" d="M623.91,245.9c.04-.06.08-.11.11-.17-.06.09-.13.19-.19.28.03-.04.05-.08.08-.11Z"/>
      <path class="cls-6" d="M607.47,269.02c-.16.21-.31.42-.47.63.1-.14.2-.27.3-.41.06-.08.11-.15.17-.23Z"/>
      <path class="cls-6" d="M611.71,263.23c-.08.12-.17.23-.25.35.05-.07.1-.14.16-.21.03-.04.06-.09.1-.13Z"/>
      <path class="cls-6" d="M611.71,263.23c.65-.89,1.29-1.78,1.93-2.67-.64.89-1.28,1.78-1.93,2.67Z"/>
      <path class="cls-6" d="M607.47,269.02c.67-.9,1.33-1.8,1.99-2.7-.66.9-1.32,1.8-1.99,2.7Z"/>
      <path class="cls-6" d="M609.48,266.29c.66-.91,1.32-1.81,1.98-2.71-.66.91-1.32,1.81-1.98,2.71Z"/>
      <path class="cls-6" d="M618,254.43c.64-.91,1.27-1.81,1.9-2.72-.63.91-1.27,1.81-1.9,2.72Z"/>
      <path class="cls-6" d="M625.87,243.02h0s0,0,0,0Z"/>
      <path class="cls-6" d="M625.86,243.03c-.61.9-1.23,1.81-1.84,2.71.62-.9,1.23-1.81,1.84-2.71Z"/>
      <path class="cls-6" d="M623.83,246.02c-.62.9-1.24,1.8-1.86,2.7.62-.9,1.24-1.8,1.86-2.7Z"/>
      <path class="cls-6" d="M619.95,251.64c.63-.9,1.25-1.79,1.87-2.69-.62.9-1.24,1.79-1.87,2.69Z"/>
      <path class="cls-6" d="M616.06,257.16c.56-.79,1.12-1.58,1.67-2.37-.56.79-1.11,1.58-1.67,2.37Z"/>
      <path class="cls-6" d="M615.57,257.85c-.57.8-1.13,1.59-1.7,2.39.57-.8,1.14-1.59,1.7-2.39Z"/>
      <path class="cls-6" d="M615.81,257.51c.08-.12.17-.23.25-.35-.16.23-.33.46-.49.69.08-.11.16-.23.24-.34Z"/>
      <path class="cls-6" d="M598.46,280.92c-.17.22-.34.43-.5.65.13-.16.25-.32.38-.49.04-.05.08-.11.13-.16Z"/>
      <path class="cls-6" d="M691.22,235.1c-14.66-8.94-31.47-14.59-49.12-15.84l-.55-.04s-.39-.03-.73-.05c-.18,0-.37-.02-.55-.03h-.04s-.02.06-.02.06c-4.02,6.99-8.16,14.12-12.52,21.13-.6.9-1.21,1.8-1.82,2.7.61-.9,1.22-1.8,1.82-2.7-.44.71-.89,1.42-1.33,2.13-.74,1.09-1.48,2.18-2.23,3.28-.04.06-.08.11-.11.17-.03.04-.05.08-.08.11-.62.9-1.23,1.8-1.86,2.7-.05.08-.1.15-.16.23-.27.39-.53.77-.8,1.16-.35.51-.71,1.02-1.06,1.53-.01.02-.02.03-.04.05,0,0,0,.01-.01.02-.63.9-1.26,1.81-1.9,2.72-.09.12-.17.25-.26.37-1.28,1.81-2.57,3.63-3.87,5.45-.08.11-.16.22-.23.32-.64.89-1.28,1.78-1.93,2.67-.03.04-.06.09-.1.13-.05.07-.1.14-.16.21-.55.76-1.11,1.53-1.67,2.29-.1.14-.2.28-.31.42,0,0-.01.02-.02.03-.66.9-1.32,1.8-1.99,2.7-.06.08-.11.15-.17.23-.1.14-.2.27-.3.41-.2.27-.4.53-.6.8-.23.31-.46.61-.68.92-.19.25-.37.5-.56.75-.38.51-.77,1.03-1.15,1.54-.16.21-.32.43-.49.64-.21.28-.43.57-.64.85-.05.07-.1.13-.15.2-.19.25-.38.5-.57.75-.24.31-.48.62-.71.94-.19.25-.39.51-.58.76-.25.32-.5.65-.75.97-.18.23-.36.47-.54.7-.37.48-.74.96-1.11,1.44-.17.22-.34.43-.5.65-.31.4-.61.79-.92,1.18-.18.23-.36.47-.55.7-.26.33-.52.67-.78,1-.19.24-.38.48-.57.72-.27.34-.54.68-.8,1.02-.18.22-.35.45-.53.67-.04.06-.09.11-.13.17-.31.39-.63.79-.94,1.18-.15.19-.3.37-.44.56-.38.47-.75.94-1.13,1.41-.17.22-.35.43-.52.65-.28.35-.57.7-.85,1.06-.18.23-.37.46-.56.69-.11.14-.23.28-.34.42-.17.21-.34.42-.52.63-.18.22-.36.44-.53.66-.36.44-.71.87-1.07,1.31-.11.13-.21.26-.32.39-.45.55-.9,1.1-1.36,1.65-.16.2-.33.39-.49.59-.21.25-.41.5-.62.75-.1.12-.2.24-.3.36-.19.22-.37.45-.56.67-.3.36-.6.72-.9,1.08-.18.21-.36.43-.54.64-.36.43-.72.85-1.08,1.28-.12.14-.23.28-.35.42-.43.51-.87,1.02-1.3,1.53-.04.04-.07.09-.11.13-.16.18-.31.37-.47.55-.33.39-.66.78-1,1.16-.18.21-.37.43-.55.64-.32.37-.63.74-.95,1.1-.18.21-.36.41-.54.62-.37.42-.73.84-1.1,1.26-.13.15-.25.29-.38.44-.02.03-.04.05-.07.08-.47.53-.94,1.07-1.41,1.6-.14.16-.28.32-.42.48-.36.41-.72.82-1.09,1.23-.18.21-.37.41-.55.62-.33.37-.67.75-1,1.12-.18.2-.36.41-.55.61-.1.11-.19.21-.29.32-.27.3-.55.61-.82.91-.14.16-.29.32-.43.48-.51.56-1.02,1.12-1.53,1.68-.12.13-.24.27-.36.4-.4.43-.79.87-1.19,1.3-.18.2-.36.39-.54.59-.19.2-.37.41-.56.61-.16.18-.32.35-.49.52-.19.21-.38.41-.57.62-.37.4-.75.8-1.12,1.21-.16.17-.31.33-.47.5-.53.56-1.05,1.13-1.58,1.69-.09.1-.19.2-.29.3-.36.38-.71.75-1.07,1.13-.08.09-.17.17-.25.26-.18.19-.37.39-.55.58-.36.38-.72.76-1.09,1.14-.19.2-.39.41-.58.61-.38.4-.76.79-1.14,1.19-.17.17-.33.35-.5.52-.53.55-1.07,1.1-1.61,1.66,0,0-.02.02-.03.03-.05.06-.11.11-.16.17-.49.5-.98,1-1.47,1.5-.17.17-.34.35-.51.52-.4.4-.79.8-1.19,1.2-.17.17-.34.34-.5.51-.54.55-1.09,1.09-1.63,1.64,0,0-.01.01-.02.02-1.65,1.65-3.3,3.27-4.95,4.88-1.65,1.61-3.31,3.21-4.96,4.81,0,0,0,0,0,0-.63.61-1.26,1.21-1.88,1.82-.05.05-.1.1-.15.15-.41.4-.83.79-1.24,1.19-.19.18-.37.36-.56.54-.08.07-.15.15-.23.22-.58.56-1.17,1.12-1.76,1.67-.09.09-.18.17-.27.26-.58.55-1.16,1.1-1.74,1.64-.09.09-.19.18-.28.27-.58.55-1.16,1.09-1.74,1.63-.09.08-.18.17-.26.25-.59.55-1.18,1.1-1.77,1.65-.07.07-.14.13-.22.2-.61.57-1.21,1.13-1.82,1.69-.04.04-.08.08-.13.12-1.27,1.18-2.55,2.35-3.82,3.51-.04.04-.08.07-.12.11-.61.56-1.22,1.12-1.84,1.67-.07.06-.13.12-.2.18-.6.54-1.2,1.08-1.79,1.62-.08.07-.15.14-.23.21-.59.53-1.18,1.07-1.78,1.6-.08.07-.16.14-.24.21-.59.53-1.19,1.06-1.78,1.59-.07.06-.14.13-.21.19-.61.54-1.21,1.07-1.82,1.61-.05.05-.1.09-.16.14-.63.55-1.25,1.1-1.88,1.65-.02.02-.04.03-.06.05-1.3,1.14-2.61,2.28-3.91,3.41-.02.02-.04.03-.05.05-.63.55-1.26,1.09-1.89,1.63-.04.04-.09.08-.13.11-.62.53-1.23,1.06-1.85,1.59-.05.05-.11.09-.16.14-.61.52-1.22,1.04-1.83,1.56-.06.05-.11.1-.17.14-.61.52-1.23,1.04-1.84,1.56-.05.04-.09.08-.14.12-.63.53-1.25,1.05-1.88,1.58-.03.02-.05.04-.08.07-2.62,2.19-5.23,4.34-7.84,6.46-.02.02-.04.04-.07.05-.63.51-1.26,1.02-1.89,1.53-.04.03-.07.06-.11.09-.62.5-1.25,1.01-1.87,1.5-.04.03-.08.06-.12.09-.63.5-1.25,1-1.88,1.5-.03.02-.06.05-.09.07-.64.51-1.27,1.01-1.91,1.51-.01,0-.02.02-.03.03-2.12,1.68-4.23,3.33-6.34,4.96-.59.46-1.18.91-1.77,1.36-.14.11-.28.21-.41.32-.1.08-.21.16-.31.24-.88.67-1.76,1.34-2.64,2.01-.83.63-1.66,1.26-2.49,1.88-.55.41-1.1.82-1.64,1.22-.84.62-1.67,1.24-2.51,1.86-.62.46-1.24.91-1.86,1.37-.43.31-.85.62-1.28.93-.4.29-.81.58-1.21.87-.77.56-1.55,1.12-2.32,1.68-.43.31-.86.62-1.29.92-.62.44-1.24.88-1.85,1.31-.55.39-1.11.78-1.66,1.17-.78.55-1.57,1.1-2.35,1.65-.1.07-.2.14-.3.21-2.01,1.4-4.02,2.77-6.01,4.12-.06.04-.12.08-.19.13h187.7c.9,0,1.78-.03,2.67-.07,1.23.04,2.47.07,3.71.07,1.41,0,2.81-.03,4.21-.08,14.49-.54,28.26-3.83,40.85-9.35,12.25-5.37,23.36-12.86,32.86-22.01,18.92-19.11,30.61-45.41,30.61-74.43,0-37.82-19.85-71.01-49.69-89.71Z"/>
    </g>
    <path class="cls-5" d="M134.95,430.47c3.46-2.14,6.94-4.33,10.43-6.55.17-.11.34-.22.52-.33,1.35-.87,2.71-1.75,4.07-2.63.96-.62,1.92-1.24,2.88-1.86,1.07-.69,2.14-1.39,3.22-2.09.74-.49,1.49-.98,2.23-1.47,1.34-.89,2.69-1.78,4.03-2.68.7-.47,1.4-.93,2.1-1.39.74-.49,1.48-.99,2.23-1.49,1.07-.72,2.15-1.45,3.23-2.18,1.45-.99,2.91-1.98,4.36-2.97.95-.65,1.9-1.3,2.86-1.96,1.44-.99,2.89-2,4.33-3,1.53-1.07,3.06-2.14,4.6-3.22.18-.13.36-.25.54-.38.24-.17.48-.34.72-.51,1.03-.72,2.05-1.45,3.08-2.18.77-.55,1.54-1.1,2.31-1.65.35-.25.69-.5,1.04-.74.48-.35.97-.69,1.45-1.04.69-.5,1.39-1,2.08-1.5.35-.25.69-.5,1.04-.75,1.04-.75,2.08-1.5,3.12-2.26.02-.01.04-.03.06-.04,1.11-.81,2.21-1.61,3.32-2.43.05-.04.1-.08.16-.12,1.09-.8,2.18-1.6,3.27-2.41.07-.05.13-.1.2-.15,1.08-.8,2.17-1.61,3.26-2.42.06-.05.13-.09.19-.14,1.1-.82,2.2-1.64,3.3-2.46.04-.03.08-.06.12-.09,1.14-.85,2.27-1.71,3.41-2.57,3.41-2.58,6.83-5.19,10.25-7.83.05-.04.09-.07.14-.11,1.09-.84,2.18-1.69,3.27-2.53.08-.06.16-.13.25-.19,1.07-.83,2.14-1.67,3.21-2.51.1-.08.2-.15.3-.23,1.07-.83,2.13-1.67,3.2-2.51.1-.08.19-.15.29-.23,1.08-.85,2.15-1.7,3.23-2.55.08-.06.15-.12.23-.18,1.1-.87,2.2-1.75,3.3-2.63.03-.03.06-.05.1-.08,2.27-1.82,4.55-3.65,6.83-5.49.03-.03.06-.05.1-.08,1.09-.89,2.19-1.77,3.28-2.67.09-.07.18-.15.27-.22,1.06-.86,2.12-1.73,3.17-2.6.12-.1.25-.2.37-.31,1.04-.85,2.08-1.71,3.12-2.57.14-.11.28-.23.41-.34,1.04-.86,2.07-1.71,3.11-2.58.13-.11.27-.22.4-.34,1.05-.87,2.09-1.74,3.14-2.62.11-.1.23-.19.34-.29,1.07-.9,2.14-1.8,3.21-2.7.07-.06.14-.12.21-.18,2.23-1.88,4.46-3.77,6.68-5.67.07-.06.15-.13.22-.19,1.06-.91,2.13-1.82,3.19-2.73.13-.11.25-.22.38-.32,1.03-.89,2.06-1.78,3.09-2.67.15-.13.31-.27.46-.4.81-.7,1.61-1.4,2.42-2.1,8.12-6.59,16.07-13.37,23.77-20.32,0,0,.02-.01.02-.02,2.16-1.95,4.31-3.91,6.45-5.86.48-.44.97-.88,1.45-1.33,1.31-1.2,2.62-2.41,3.92-3.61h0c.36-.33.71-.66,1.07-.99.4-.37.81-.75,1.21-1.12.23-.21.46-.43.69-.64.14-.13.28-.26.41-.39,1.82-1.69,3.62-3.39,5.42-5.08.44-.41.87-.82,1.31-1.23,1.15-1.09,2.29-2.18,3.43-3.26.81-.78,1.62-1.55,2.43-2.33.54-.51,1.07-1.03,1.6-1.54.43-.41.86-.83,1.29-1.24.86-.83,1.71-1.65,2.56-2.48.43-.41.85-.83,1.27-1.24.29-.28.58-.56.87-.84.05-.05.11-.1.16-.16,1.84-1.8,3.67-3.6,5.49-5.4.56-.55,1.11-1.1,1.67-1.65.08-.08.16-.16.24-.24,1.23-1.22,2.45-2.45,3.67-3.67.52-.52,1.05-1.05,1.57-1.57.59-.59,1.17-1.19,1.76-1.78,1.29-1.3,2.57-2.61,3.84-3.91.71-.73,1.42-1.45,2.13-2.18.57-.58,1.13-1.16,1.69-1.74,1.01-1.04,2.01-2.08,3.01-3.12.79-.83,1.58-1.65,2.37-2.47.42-.44.85-.89,1.27-1.33.59-.62,1.18-1.24,1.76-1.85,1.17-1.23,2.32-2.46,3.48-3.69.94-1,1.88-2,2.81-3.01.08-.09.16-.17.24-.26.91-.98,1.82-1.96,2.72-2.93.79-.85,1.57-1.71,2.35-2.56,1.51-1.64,3-3.28,4.48-4.92.61-.67,1.22-1.34,1.82-2.01,2.02-2.24,4.01-4.48,5.98-6.7,1.23-1.39,2.44-2.77,3.65-4.16.38-.43.76-.87,1.13-1.3,2.04-2.34,4.05-4.68,6.04-7.01.86-1.01,1.71-2.02,2.56-3.02.34-.4.68-.8,1.01-1.2.11-.13.22-.26.33-.39,1.3-1.55,2.59-3.1,3.87-4.64.78-.95,1.57-1.89,2.34-2.83.07-.09.15-.18.22-.27,3.19-3.88,6.29-7.74,9.31-11.56.06-.08.12-.15.18-.23.11-.13.21-.27.32-.4.95-1.2,1.89-2.4,2.82-3.6,1.7-2.18,3.41-4.41,5.12-6.65,10.05-13.22,22.92-32.25,31.45-45.15,3.12-4.77,6.12-9.4,9-13.83,0,0,.01,0,.02-.01.1-.16.15-.24.14-.24C465.02,41.64,411.92.35,350.09.35c-77.93,0-141.1,63.17-141.1,141.1,0,.4.01.8.02,1.21-.97-.32-1.94-.63-2.92-.93-11.1-3.86-23.03-5.95-35.44-5.95-59.63,0-107.97,48.34-107.97,107.97,0,1.65.04,3.29.11,4.93.01,2.37.11,4.73.26,7.06-3.76,1.23-7.42,2.7-10.94,4.39C21.47,274.3.21,305.31.21,341.29s20.93,66.5,51.19,80.82c1.07.53,2.17,1.02,3.27,1.49,8.97,4.52,19.09,7.08,29.82,7.08h39.04s0,0,0,0h28.12s-17.02,0-17.02,0c.11-.07.22-.13.32-.2Z"/>
    <g>
      <path class="cls-1" d="M217.45,172.18h252.03v29.99c0,18.22-14.8,33.02-33.02,33.02h-185.99c-18.22,0-33.02-14.8-33.02-33.02v-29.99h0Z" transform="translate(686.93 407.36) rotate(-180)"/>
      <path class="cls-1" d="M217.45,246.09h252.03v29.99c0,18.22-14.8,33.02-33.02,33.02h-185.99c-18.22,0-33.02-14.8-33.02-33.02v-29.99h0Z" transform="translate(686.93 555.19) rotate(180)"/>
      <path class="cls-1" d="M217.45,320h252.03v29.99c0,18.22-14.8,33.02-33.02,33.02h-185.99c-18.22,0-33.02-14.8-33.02-33.02v-29.99h0Z" transform="translate(686.93 703.01) rotate(-180)"/>
    </g>
    <path class="cls-4" d="M539.26,81.64c-8.81,0-17.36,1.08-25.54,3.1-10.65,2.64-20.66,6.89-29.76,12.48-.73,1.16-4.17,6.51-9.02,13.84-9.44,14.42-19.97,30.1-31.45,45.15-1.68,2.2-3.38,4.42-5.12,6.65-.06.08-.12.16-.19.24-.97,1.25-1.96,2.51-2.95,3.76-.06.08-.12.15-.18.23-3.02,3.82-6.13,7.68-9.31,11.56-.07.09-.15.18-.22.27-.77.94-1.56,1.89-2.34,2.83-1.28,1.54-2.57,3.09-3.87,4.64-.11.13-.22.26-.33.39-.34.4-.67.8-1.01,1.2-.85,1.01-1.7,2.01-2.56,3.02-1.99,2.33-4,4.67-6.04,7.01-.38.43-.76.87-1.13,1.3-1.21,1.38-2.43,2.77-3.65,4.16-1.97,2.23-3.96,4.46-5.98,6.7-.6.67-1.21,1.34-1.82,2.01-1.48,1.64-2.98,3.28-4.48,4.92-.78.85-1.56,1.71-2.35,2.56-.9.98-1.81,1.96-2.72,2.93-.08.09-.16.17-.24.26-.93,1-1.87,2-2.81,3.01-1.15,1.23-2.31,2.46-3.48,3.69-.59.62-1.17,1.24-1.76,1.85-.42.44-.85.89-1.27,1.33-.79.82-1.57,1.65-2.37,2.47-1,1.04-2,2.08-3.01,3.12-.56.58-1.13,1.16-1.69,1.74-.71.73-1.42,1.45-2.13,2.18-1.27,1.3-2.56,2.61-3.84,3.91-.59.59-1.17,1.19-1.76,1.78-.52.52-1.04,1.05-1.57,1.57-1.22,1.22-2.44,2.44-3.67,3.67-.08.08-.16.16-.24.24-.55.55-1.11,1.1-1.67,1.66-1.82,1.8-3.64,3.6-5.49,5.4-.05.05-.11.1-.16.16-.29.28-.58.56-.87.84-.42.41-.85.83-1.27,1.24-.85.83-1.7,1.65-2.56,2.48-.43.41-.86.83-1.29,1.24-.53.51-1.07,1.03-1.6,1.54-.81.78-1.62,1.55-2.43,2.33-1.14,1.09-2.28,2.18-3.43,3.26-.43.41-.87.82-1.31,1.23-1.79,1.69-3.6,3.39-5.42,5.08-.14.13-.28.26-.41.39-.23.21-.46.43-.69.64-.4.37-.81.75-1.21,1.12-.36.33-.71.66-1.07.99-1.3,1.2-2.61,2.41-3.92,3.61-.48.44-.97.88-1.45,1.33-2.14,1.95-4.28,3.91-6.45,5.86,0,0-.02.01-.02.02-7.71,6.95-15.66,13.73-23.77,20.32-.81.7-1.61,1.4-2.42,2.1-.15.13-.31.27-.46.4-1.03.89-2.06,1.78-3.09,2.67-.13.11-.25.22-.38.32-1.06.91-2.13,1.82-3.19,2.73-.07.06-.15.13-.22.19-2.23,1.9-4.46,3.79-6.68,5.67-.07.06-.14.12-.21.18-1.07.9-2.14,1.8-3.21,2.7-.11.1-.23.19-.34.29-1.05.88-2.09,1.75-3.14,2.62-.13.11-.27.22-.4.34-1.04.86-2.07,1.72-3.11,2.58-.14.11-.28.23-.41.34-1.04.86-2.08,1.71-3.12,2.57-.12.1-.25.2-.37.31-1.06.87-2.12,1.73-3.17,2.6-.09.07-.18.15-.27.22-1.09.89-2.19,1.78-3.28,2.67-.03.03-.06.05-.1.08-2.28,1.84-4.55,3.67-6.83,5.49-.03.03-.06.05-.1.08-1.1.88-2.2,1.76-3.3,2.63-.08.06-.15.12-.23.18-1.08.85-2.15,1.7-3.23,2.55-.1.08-.19.15-.29.23-1.07.84-2.13,1.68-3.2,2.51-.1.08-.2.15-.3.23-1.07.84-2.14,1.67-3.21,2.51-.08.06-.16.13-.25.19-1.09.85-2.18,1.69-3.27,2.53-.05.04-.09.07-.14.11-3.42,2.64-6.84,5.25-10.25,7.83-1.14.86-2.27,1.71-3.41,2.57-.04.03-.08.06-.12.09-1.1.82-2.2,1.64-3.3,2.46-.06.05-.13.09-.19.14-1.09.81-2.17,1.61-3.26,2.42-.07.05-.13.1-.2.15-1.09.81-2.18,1.61-3.27,2.41-.05.04-.1.08-.16.12-1.11.81-2.21,1.62-3.32,2.43-.02.01-.04.03-.06.04-1.04.76-2.08,1.51-3.12,2.26-.35.25-.69.5-1.04.75-.69.5-1.39,1-2.08,1.5-.48.35-.97.69-1.45,1.04-.35.25-.69.5-1.04.74-.77.55-1.54,1.1-2.31,1.65-1.03.73-2.05,1.46-3.08,2.18-.24.17-.48.34-.72.51-.18.13-.36.25-.54.38-1.53,1.08-3.07,2.15-4.6,3.22-1.45,1.01-2.89,2.01-4.33,3-.95.66-1.91,1.3-2.86,1.96-1.46,1-2.91,1.99-4.36,2.97-1.08.73-2.15,1.46-3.23,2.18-.74.5-1.48.99-2.23,1.49-.7.47-1.4.93-2.1,1.39-1.35.89-2.69,1.79-4.03,2.68-.75.49-1.49.98-2.23,1.47-1.07.7-2.15,1.4-3.22,2.09-.96.62-1.92,1.24-2.88,1.86-1.36.87-2.72,1.76-4.07,2.63-.17.11-.34.22-.52.33-3.49,2.22-6.97,4.41-10.43,6.55-.11.07-.22.13-.32.2h303.58c.06-.04.12-.08.19-.13,2-1.35,4-2.72,6.01-4.12.1-.07.2-.14.3-.21.78-.54,1.56-1.1,2.35-1.65.55-.39,1.11-.78,1.66-1.17.62-.43,1.23-.87,1.85-1.31.43-.31.86-.61,1.29-.92.77-.56,1.55-1.12,2.32-1.68.4-.29.81-.58,1.21-.87.43-.31.85-.62,1.28-.93.62-.45,1.24-.91,1.86-1.37.84-.62,1.67-1.24,2.51-1.86.55-.41,1.1-.81,1.64-1.22.83-.62,1.66-1.25,2.49-1.88.88-.67,1.76-1.34,2.64-2.01.1-.08.21-.16.31-.24.14-.11.28-.21.41-.32.59-.45,1.18-.91,1.77-1.36.44-.34.89-.69,1.33-1.03.2-.15.4-.31.6-.46.28-.22.56-.43.83-.65.4-.31.8-.62,1.2-.93.2-.16.4-.31.6-.47.6-.47,1.19-.94,1.79-1.41.01,0,.02-.02.03-.03.64-.5,1.27-1.01,1.91-1.51.03-.02.06-.05.09-.07.62-.5,1.25-1,1.88-1.5.04-.03.08-.06.12-.09.62-.5,1.25-1,1.87-1.5.04-.03.07-.06.11-.09.63-.51,1.26-1.02,1.89-1.53.02-.02.04-.04.07-.05.65-.53,1.3-1.06,1.96-1.6,1.96-1.6,3.92-3.23,5.88-4.87.03-.02.05-.04.08-.07.63-.52,1.25-1.05,1.88-1.58.05-.04.09-.08.14-.12.61-.52,1.23-1.04,1.84-1.56.06-.05.11-.1.17-.14.61-.52,1.22-1.04,1.83-1.56.05-.05.11-.09.16-.14.62-.53,1.23-1.05,1.85-1.59.04-.04.09-.08.13-.11.63-.54,1.26-1.09,1.89-1.63.02-.02.04-.03.05-.05,1.3-1.13,2.61-2.26,3.91-3.41.02-.02.04-.03.06-.05.63-.55,1.25-1.1,1.88-1.65.05-.05.1-.09.16-.14.61-.53,1.21-1.07,1.82-1.61.07-.06.14-.13.21-.19.59-.53,1.19-1.06,1.78-1.59.08-.07.16-.14.24-.21.59-.53,1.18-1.06,1.78-1.6.08-.07.15-.14.23-.21.6-.54,1.2-1.08,1.79-1.62.07-.06.13-.12.2-.18.61-.56,1.22-1.11,1.84-1.67.04-.04.08-.07.12-.11,1.27-1.16,2.55-2.33,3.82-3.51.04-.04.08-.08.13-.12.61-.56,1.21-1.13,1.82-1.69.07-.07.14-.13.22-.2.59-.55,1.18-1.1,1.77-1.65.09-.08.18-.17.26-.25.58-.54,1.16-1.09,1.74-1.63.09-.09.19-.18.28-.27.58-.55,1.16-1.09,1.74-1.64.09-.09.18-.17.27-.26.59-.56,1.17-1.11,1.76-1.67.08-.07.15-.15.23-.22.18-.17.35-.34.53-.51.42-.41.85-.81,1.27-1.22.05-.05.1-.1.15-.15.63-.6,1.26-1.21,1.88-1.82,0,0,0,0,0,0,1.65-1.6,3.31-3.2,4.96-4.81,1.65-1.61,3.31-3.24,4.95-4.88,0,0,.01-.01.02-.02.55-.55,1.09-1.09,1.63-1.64.17-.17.34-.34.5-.51.4-.4.79-.8,1.19-1.2.17-.17.34-.35.51-.52.49-.5.98-1,1.47-1.5.05-.06.11-.11.16-.17,0,0,.02-.02.03-.03.54-.55,1.07-1.1,1.61-1.66.17-.17.33-.35.5-.52.38-.39.76-.79,1.14-1.19.19-.2.39-.41.58-.61.36-.38.73-.76,1.09-1.14.18-.19.37-.39.55-.58.08-.09.17-.17.25-.26.36-.38.71-.75,1.07-1.13.09-.1.19-.2.29-.3.53-.56,1.05-1.12,1.58-1.69.16-.17.31-.33.47-.5.37-.4.75-.8,1.12-1.21.19-.21.38-.41.57-.62.16-.17.32-.35.49-.52.19-.2.37-.41.56-.61.18-.2.36-.39.54-.59.4-.43.79-.87,1.19-1.3.12-.13.24-.27.36-.4.51-.56,1.02-1.12,1.53-1.68.14-.16.29-.32.43-.48.27-.3.55-.61.82-.91.1-.11.19-.21.29-.32.18-.2.37-.41.55-.61.33-.37.67-.75,1-1.12.18-.21.37-.41.55-.62.36-.41.72-.82,1.09-1.23.14-.16.28-.32.42-.48.47-.53.94-1.07,1.41-1.6.02-.03.04-.05.07-.08.13-.15.25-.29.38-.44.37-.42.73-.84,1.1-1.26.18-.21.36-.41.54-.62.32-.37.64-.73.95-1.1.18-.21.37-.43.55-.64.33-.39.66-.77,1-1.16.16-.18.31-.37.47-.55.04-.04.07-.09.11-.13.44-.51.87-1.02,1.3-1.53.12-.14.23-.28.35-.42.36-.43.72-.85,1.08-1.28.18-.21.36-.43.54-.64.3-.36.6-.72.9-1.08.19-.22.37-.45.56-.67.1-.12.2-.24.3-.36.21-.25.42-.5.62-.75.16-.2.33-.39.49-.59.45-.55.91-1.1,1.36-1.65.11-.13.21-.26.32-.39.36-.44.71-.87,1.07-1.31.18-.22.36-.44.53-.66.17-.21.34-.42.52-.63.11-.14.23-.28.34-.42.19-.23.37-.46.56-.69.28-.35.57-.7.85-1.06.17-.22.35-.43.52-.65.38-.47.75-.94,1.13-1.41.15-.19.3-.37.44-.56.31-.39.63-.79.94-1.18.04-.06.09-.11.13-.17.18-.22.35-.45.53-.67.27-.34.54-.68.8-1.02.19-.24.38-.48.57-.72.26-.33.52-.67.78-1,.18-.23.36-.47.55-.7.31-.39.61-.79.92-1.18.17-.22.34-.43.5-.65.37-.48.74-.96,1.11-1.44.18-.23.36-.47.54-.7.25-.32.5-.65.75-.97.19-.25.39-.51.58-.76.24-.31.48-.62.71-.94.19-.25.38-.5.57-.75.05-.07.1-.13.15-.2.22-.28.43-.57.64-.85.16-.21.32-.43.49-.64.39-.51.77-1.02,1.15-1.54.19-.25.37-.5.56-.75.23-.31.46-.61.68-.92.2-.27.4-.53.6-.8.1-.14.2-.27.3-.41.06-.08.11-.15.17-.23.45-.61.9-1.21,1.34-1.82.36-.44.72-.88,1.08-1.33.56-.76,1.12-1.53,1.67-2.29.05-.07.1-.14.16-.21.03-.04.06-.09.1-.13.65-.89,1.29-1.78,1.93-2.67.08-.11.16-.22.23-.32,1.31-1.82,2.6-3.64,3.87-5.45.09-.12.17-.25.26-.37.64-.91,1.27-1.81,1.9-2.72,0,0,0-.01.01-.02.01-.02.02-.03.04-.05.36-.51.71-1.02,1.06-1.53.27-.39.54-.77.8-1.16.05-.08.1-.15.16-.23.62-.9,1.24-1.8,1.86-2.7.03-.04.05-.08.08-.11.04-.06.08-.11.11-.17.75-1.1,1.49-2.19,2.23-3.28,4.84-7.69,9.42-15.56,13.85-23.26l.02-.05h0c3.14-10.02,4.83-20.66,4.83-31.7,0-58.43-47.37-105.8-105.8-105.8Z"/>
  </g>
  <g>
    <path class="cls-2" d="M1286.29,388.45V131.49h0c26.76,0,48.46,21.69,48.46,48.46v57.63h95.44v-106.09h0c26.76,0,48.46,21.69,48.46,48.46v208.51s-48.46,0-48.46,0v-106.83h-95.44v106.83h-48.46Z"/>
    <g>
      <polygon class="cls-2" points="815.82 133.45 815.82 213 815.82 388.24 858.69 388.24 858.69 175.48 871.25 175.48 878.29 175.48 906.3 133.45 815.82 133.45"/>
      <path class="cls-2" d="M937.6,345.33c-7.48,0-8.68-5.01-.73-10.45,13.93-9.11,32.54-20.91,48.92-31.3,13.15-8.33,24.47-16.83,32.42-22.01,11.89-7.77,21.68-15.13,29.36-22.42,18.47-17.56,23.62-34.37,23.62-57.92,0-20.27-18.23-68.15-68.9-68.15h-79.77l-27.51,42.24h106.42c16.58,0,25.82,13.12,27.93,26.34,1.15,7.23-.44,14.12-6.06,21.62-.05.06-.1.13-.15.19-.35.46-.71.92-1.09,1.38-.06.07-.11.14-.17.22-.43.52-.88,1.05-1.35,1.58-.2.22-.41.44-.61.67-.18.2-.36.4-.55.59-.22.24-.45.47-.68.71-.19.19-.38.39-.57.58-.24.24-.49.49-.74.74-.19.19-.39.38-.58.56-.27.26-.54.52-.81.78-.16.15-.33.31-.5.46-.67.62-1.36,1.24-2.08,1.87-.08.07-.16.14-.24.21-.36.31-.73.63-1.11.94-.17.15-.34.29-.52.44-.38.31-.76.63-1.15.95-.18.14-.35.29-.53.43-.41.33-.83.67-1.26,1.01-.13.1-.27.21-.4.31-1.48,1.16-3.06,2.36-4.74,3.58-.16.12-.32.23-.48.35-.48.34-.96.69-1.45,1.04-.26.18-.52.37-.78.55-.46.32-.92.65-1.39.98-.34.24-.69.48-1.04.72-.42.29-.84.58-1.27.87-.79.54-1.59,1.08-2.42,1.63-20.96,13.88-36.47,23.53-70.32,44.72l-7.23,4.48c-.68.43-1.36.86-2.02,1.3-.37.24-.73.49-1.1.74-.28.19-.57.38-.85.58-.42.29-.84.58-1.25.88-.21.15-.42.3-.63.45-.44.32-.87.64-1.3.96-.17.13-.34.27-.52.4-.57.44-1.13.88-1.69,1.32-.49.39-.97.78-1.44,1.18-.08.06-.15.13-.23.2-13.82,11.63-22.55,26.03-22.55,40.03,0,5.55.2,28.89,24.8,38.93,6.88,3.02,15.2,4.66,25,4.66h99l27.69-43.12h-122.4Z"/>
      <path class="cls-2" d="M1219.14,251.77c-10.67-9.83-24.74-15.93-41.93-18.27l33.15-28.17c14.85-11.6,23.26-29.34,18.21-45-4.56-14.08-17.49-26.89-33.82-26.89l-111.63.08s13.15,14.58,20.72,42.06h86.27c-10.19,8.39-59.23,47.4-77.15,61.68l-2.13,1.68v32.22h46.42c.81,0,1.61.02,2.4.04.31.01.62.03.93.05.46.02.91.04,1.36.08.42.03,4.57.18,5.43.18,19.44,0,35.19,16.33,35.19,36.46s-15.76,36.46-35.19,36.46c-.5,0-1-.02-1.49-.04-4.06.53-8.58.83-13.64.83h-73.98l-27.6,43.01h111.15c22.94,0,41.93-7.16,56.44-21.22,16.85-16.13,24.72-33.78,24.72-55.61,0-23.84-8.68-45.57-23.84-59.64Z"/>
    </g>
    <path class="cls-2" d="M2050.21,131.49l-80.03.18c-11.69-.04-25.02-.07-35.67-.09l-.13.2-2.59,4.05-24.73,38.61c2.07,0,4.14,0,6.21,0,2.35,0,49.62-.15,57.34-.31v213.31h47.25v-213.82h52.51l26.64-41.86c-15.6-.17-26.27-.27-46.79-.27Z"/>
    <path class="cls-2" d="M1894.11,264.96c-31.07-14.61-62.67-29.28-93.24-43.46l-12.15-5.64c-7.51-3.49-20.07-9.32-17.08-24.84,3.2-16.58,17.8-16.58,25.65-16.58h.89c16.22.05,32.44.07,48.66.07,13.54,0,27.08-.03,40.61-.05l27.48-42.91h-6.45c-21.25-.03-42.49-.06-63.74-.06-16.32,0-32.65.01-48.97.05-32.5.08-57.89,20.08-64.67,50.96-6.54,29.74,7.76,56.86,37.31,70.78,33.43,15.75,68.68,32.21,107.76,50.31,4.58,2.12,18.51,8.58,15.03,24.85-3.38,15.79-17.76,15.79-23.91,15.79h-.36c-14.76-.05-123.56-.06-125.21-.06v42.89c2.61.15,5.1.29,7.5.29,24.37.03,48.74.06,73.11.06,14.88,0,29.76-.01,44.64-.04,31.8-.06,58.49-20.36,64.9-49.38,7.04-31.83-6.73-58.46-37.76-73.05Z"/>
    <path class="cls-2" d="M1687.65,157.62c-18.75-17.42-43.98-26.14-75.7-26.14s-56.96,8.71-75.7,26.14c-18.75,17.43-28.12,42.36-28.12,74.8v60.56c0,32.44,9.37,57.38,28.12,74.8,18.74,17.43,43.98,26.14,75.7,26.14s56.96-8.71,75.7-26.14c18.75-17.42,28.12-42.36,28.12-74.8v-60.56c0-32.44-9.37-57.37-28.12-74.8ZM1555.71,230.98c0-2.13.3-6.23.3-6.23,2.88-28.35,26.83-50.47,55.94-50.47s53.05,22.12,55.94,50.47c0,0,.3,4.1.3,6.23v63.45c0,2.58-.45,7.48-.45,7.48-3.41,27.79-27.08,49.32-55.79,49.32s-51.8-20.99-55.66-48.28c0,0-.58-5.29-.58-8.51v-63.45Z"/>
  </g>
</svg>